<mxfile host="65bd71144e">
    <diagram id="mEOAX-XeP5WuHAanpXMA" name="Page-1">
        <mxGraphModel dx="1372" dy="606" grid="1" gridSize="10" guides="1" tooltips="1" connect="1" arrows="1" fold="1" page="1" pageScale="1" pageWidth="850" pageHeight="1100" math="0" shadow="0">
            <root>
                <mxCell id="0"/>
                <mxCell id="1" parent="0"/>
                <mxCell id="2" value="" style="shape=image;verticalLabelPosition=bottom;labelBackgroundColor=default;verticalAlign=top;aspect=fixed;imageAspect=0;image=https://blog.penjee.com/wp-content/uploads/2015/04/binary-and-linear-search-animations.gif;" vertex="1" parent="1">
                    <mxGeometry x="50" y="10" width="740" height="493.81" as="geometry"/>
                </mxCell>
            </root>
        </mxGraphModel>
    </diagram>
</mxfile>